<?xml version="1.0" encoding="UTF-8"?>
<svg id="Capa_2" data-name="Capa 2" xmlns="http://www.w3.org/2000/svg" viewBox="0 0 259.3 64">
  <defs>
    <style>
      .cls-1 {
        fill: #c8b79b;
        fill-rule: evenodd;
      }

      .cls-1, .cls-2 {
        stroke-width: 0px;
      }

      .cls-2 {
        fill: #fff;
      }
    </style>
  </defs>
  <g id="Layer_1" data-name="Layer 1">
    <g>
      <g>
        <path class="cls-1" d="m31.98,0C14.32,0,0,14.32,0,31.98c0,10.33,4.9,19.52,12.5,25.36v-7.86c-4.17-4.64-6.71-10.77-6.71-17.5,0-14.47,11.73-26.19,26.19-26.19s26.19,11.73,26.19,26.19c0,8.08-3.66,15.3-9.41,20.1V18.71l-5.79-3.34-8.1-4.68v6.68l8.1,4.68v13.61l-8.1-4.3v6.68h.02s-2.93-.9-2.93-.9v6.81l2.93.72v-6.63l8.08,4.02v13.69h0v6.26c12.24-4.48,20.98-16.24,20.98-30.04C63.97,14.32,49.65,0,31.98,0Z"/>
        <path class="cls-1" d="m34.88,31.38v-1.86h0v-4.58h0v-14.25l-2.71-1.57-.18-.1-.18.1-10.82,6.25-5.79,3.34v14.25h0v6.68h0s0,12.44,0,12.44v7.12c1.82,1.12,3.75,2.07,5.79,2.82v-25.35l12-6.17c.66.31,1.38.64,1.9.88Zm-5.79-6.44l-8.1,4.68h0v-7.57l8.1-4.68v7.57Z"/>
        <polygon class="cls-1" points="31.96 43.96 31.96 37.3 29.09 39.15 29.09 45.59 31.96 43.96"/>
        <path class="cls-1" d="m29.09,50.04l.02,8.01v5.82c.95.09,1.92.13,2.89.13s1.94-.05,2.89-.13v-15.06l-2.91-.88-2.9,2.12Z"/>
      </g>
      <g>
        <g>
          <path class="cls-2" d="m76.21,34.09v-16.12h8.31c1.32,0,2.41.26,3.27.79.86.53,1.5,1.24,1.91,2.14.42.9.63,1.9.63,3s-.24,2.14-.73,3.03c-.48.88-1.17,1.58-2.05,2.08-.88.5-1.93.75-3.13.75h-3.5v4.33h-4.71Zm4.71-7.93h2.43c.73,0,1.28-.21,1.64-.63.36-.42.54-.96.54-1.63,0-.72-.17-1.28-.5-1.7-.33-.42-.85-.63-1.55-.63h-2.55v4.58Z"/>
          <path class="cls-2" d="m91.58,34.09v-16.12h8.38c1.32,0,2.4.24,3.24.73.84.48,1.47,1.16,1.89,2.01.42.86.63,1.86.63,2.99s-.27,2.04-.81,2.87c-.54.83-1.26,1.46-2.17,1.89.18.15.34.33.48.54.13.21.28.5.45.86l1.85,4.23h-4.91l-1.7-3.88c-.13-.3-.3-.51-.49-.64-.19-.12-.46-.19-.81-.19h-1.33v4.71h-4.71Zm4.71-8.31h2.48c.68,0,1.21-.18,1.59-.54.38-.36.56-.87.56-1.54,0-1.42-.67-2.13-2-2.13h-2.63v4.2Z"/>
          <path class="cls-2" d="m114.83,34.34c-2.67,0-4.71-.65-6.12-1.95-1.41-1.3-2.12-3.4-2.12-6.31,0-2,.32-3.62.95-4.84.63-1.23,1.56-2.12,2.79-2.68,1.23-.56,2.72-.84,4.49-.84s3.27.28,4.49.84c1.23.56,2.16,1.45,2.79,2.68.63,1.23.95,2.84.95,4.84,0,2.9-.71,5.01-2.13,6.31-1.42,1.3-3.45,1.95-6.11,1.95Zm0-4c1.2,0,2.07-.34,2.62-1.01.54-.68.81-1.76.81-3.24,0-1.59-.27-2.71-.81-3.37-.54-.66-1.41-.99-2.62-.99s-2.07.33-2.62.99c-.54.66-.81,1.78-.81,3.37,0,1.49.27,2.57.81,3.24.54.68,1.41,1.01,2.62,1.01Z"/>
          <path class="cls-2" d="m124.32,28.78v-3.6h10.14v3.6h-10.14Z"/>
          <path class="cls-2" d="m136.2,34.09v-16.12h4.71v16.12h-4.71Z"/>
          <path class="cls-2" d="m143.16,34.09v-16.12h4l6.08,8.53v-8.53h4.71v16.12h-4.03l-6.06-8.51v8.51h-4.71Z"/>
          <path class="cls-2" d="m160.21,34.09v-16.12h4l6.08,8.53v-8.53h4.71v16.12h-4.03l-6.06-8.51v8.51h-4.71Z"/>
          <path class="cls-2" d="m184.99,34.34c-2.67,0-4.71-.65-6.12-1.95-1.41-1.3-2.11-3.4-2.11-6.31,0-2,.32-3.62.95-4.84.63-1.23,1.56-2.12,2.79-2.68,1.23-.56,2.72-.84,4.49-.84s3.27.28,4.49.84c1.23.56,2.16,1.45,2.79,2.68.63,1.23.95,2.84.95,4.84,0,2.9-.71,5.01-2.13,6.31-1.42,1.3-3.45,1.95-6.11,1.95Zm0-4c1.2,0,2.07-.34,2.62-1.01.54-.68.81-1.76.81-3.24,0-1.59-.27-2.71-.81-3.37-.54-.66-1.41-.99-2.62-.99s-2.07.33-2.62.99c-.54.66-.81,1.78-.81,3.37,0,1.49.27,2.57.81,3.24.54.68,1.41,1.01,2.62,1.01Z"/>
          <path class="cls-2" d="m199.65,34.09l-6.18-16.12h4.91l3.75,10.66,3.75-10.66h4.93l-6.18,16.12h-4.98Z"/>
          <path class="cls-2" d="m208.69,34.09l6.18-16.12h4.98l6.18,16.12h-4.91l-1.35-3.43h-4.86l-1.33,3.43h-4.91Zm6.86-6.81h3.6l-1.8-4.73-1.8,4.73Z"/>
          <path class="cls-2" d="m227.79,34.09v-16.12h8.38c1.32,0,2.4.24,3.24.73.84.48,1.47,1.16,1.89,2.01.42.86.63,1.86.63,2.99s-.27,2.04-.81,2.87c-.54.83-1.26,1.46-2.16,1.89.18.15.34.33.48.54.13.21.28.5.45.86l1.85,4.23h-4.91l-1.7-3.88c-.13-.3-.3-.51-.49-.64-.19-.12-.46-.19-.81-.19h-1.33v4.71h-4.71Zm4.71-8.31h2.48c.68,0,1.21-.18,1.59-.54.38-.36.56-.87.56-1.54,0-1.42-.67-2.13-2-2.13h-2.63v4.2Z"/>
          <path class="cls-2" d="m254.02,38.4c-1.72,0-2.93-.35-3.63-1.04-.7-.69-1.06-1.73-1.08-3.12-2.12-.25-3.73-1.03-4.83-2.34-1.1-1.31-1.65-3.25-1.65-5.82,0-2,.32-3.62.95-4.84.63-1.23,1.56-2.12,2.79-2.68,1.23-.56,2.72-.84,4.49-.84s3.27.28,4.49.84c1.23.56,2.16,1.45,2.79,2.68.63,1.23.95,2.84.95,4.84,0,2.52-.54,4.43-1.63,5.74-1.08,1.31-2.64,2.11-4.68,2.39,0,.52.1.86.31,1.03.21.17.51.25.91.25.25,0,.51-.03.79-.08s.54-.11.79-.18v2.9c-.25.07-.54.13-.86.18s-.63.08-.91.08Zm-2.95-8.06c1.2,0,2.07-.34,2.62-1.01.54-.68.81-1.76.81-3.24,0-1.59-.27-2.71-.81-3.37-.54-.66-1.41-.99-2.62-.99s-2.07.33-2.62.99c-.54.66-.81,1.78-.81,3.37,0,1.49.27,2.57.81,3.24.54.68,1.41,1.01,2.62,1.01Z"/>
        </g>
        <g>
          <path class="cls-2" d="m84.95,43.43v5.11h-.65v-5.11h.65Zm.51,5.11h-.87v-.55h.87c.31,0,.56-.06.75-.18s.33-.29.42-.53.14-.52.14-.87v-.87c0-.27-.03-.51-.08-.7s-.13-.36-.23-.48-.23-.22-.39-.28-.34-.09-.55-.09h-.95v-.55h.95c.29,0,.55.05.78.14s.43.22.6.4c.17.18.29.4.38.67s.13.57.13.92v.87c0,.35-.04.66-.13.92s-.22.49-.38.66-.37.31-.61.4c-.24.09-.51.14-.82.14Z"/>
          <path class="cls-2" d="m89.08,43.43v5.11h-.65v-5.11h.65Z"/>
          <path class="cls-2" d="m92.44,47.24c0-.12-.01-.23-.04-.32-.03-.09-.08-.18-.15-.25s-.17-.15-.29-.21-.29-.14-.48-.21c-.21-.07-.4-.16-.57-.25s-.32-.2-.44-.32-.21-.26-.28-.41-.1-.33-.1-.53.03-.38.1-.55.17-.32.29-.44c.13-.12.28-.22.46-.29s.38-.11.6-.11c.33,0,.61.07.84.22s.4.34.52.57c.12.24.18.49.18.75h-.65c0-.19-.03-.36-.09-.51s-.16-.27-.29-.35-.3-.13-.51-.13c-.19,0-.34.04-.46.11s-.21.17-.27.29-.09.27-.09.42c0,.11.02.21.06.29.04.09.1.17.17.24s.18.14.29.21.26.12.42.18c.25.08.46.17.64.27s.32.21.44.34.19.27.25.42c.05.16.08.34.08.54s-.03.4-.1.56-.17.31-.3.43-.29.21-.47.28c-.18.06-.39.1-.62.1-.2,0-.4-.03-.59-.1s-.37-.16-.52-.29-.28-.29-.38-.49c-.09-.19-.14-.42-.14-.67h.65c0,.18.03.33.08.45s.12.23.21.31.2.14.31.18c.12.04.25.06.38.06.19,0,.34-.03.47-.1s.22-.16.29-.28.1-.27.1-.43Z"/>
          <path class="cls-2" d="m94.58,43.43v5.11h-.65v-5.11h.65Zm2.07,0v.55h-2.18v-.55h2.18Zm-.26,2.2v.55h-1.92v-.55h1.92Zm.3,2.36v.55h-2.22v-.55h2.22Z"/>
          <path class="cls-2" d="m100.84,43.43v5.11h-.65l-2.05-3.94v3.94h-.65v-5.11h.65l2.06,3.95v-3.95h.64Zm-1.02-1.3l.4.04c0,.17-.03.32-.09.45s-.14.23-.24.3-.21.11-.33.11c-.1,0-.18-.02-.25-.05s-.12-.07-.17-.12c-.05-.04-.1-.08-.16-.12s-.12-.05-.21-.05-.15.04-.2.11-.08.17-.08.28l-.4-.02c0-.17.03-.32.09-.45.06-.13.14-.23.24-.31.1-.07.21-.11.33-.11.08,0,.15.02.22.05s.12.07.18.12c.06.04.12.08.18.12s.13.05.21.05.15-.04.2-.11.08-.17.08-.28Z"/>
          <path class="cls-2" d="m103.61,43.88l-1.4,4.66h-.66l1.65-5.11h.41v.45Zm1.13,2.77v.55h-2.46v-.55h2.46Zm0,1.89l-1.4-4.66v-.45s.41,0,.41,0l1.65,5.11h-.66Z"/>
          <path class="cls-2" d="m106.1,43.43h.55l.09,3.12v1.99h-.64v-5.11Zm.2,0h.62l1.34,4.17,1.33-4.17h.62l-1.72,5.11h-.49l-1.71-5.11Zm3.57,0h.55v5.11h-.64v-1.99l.09-3.12Z"/>
          <path class="cls-2" d="m114.85,45.54v.89c0,.36-.04.68-.12.95-.08.27-.19.5-.34.68s-.33.32-.54.41-.45.14-.71.14-.49-.05-.7-.14-.39-.23-.54-.41-.27-.41-.35-.68c-.08-.27-.12-.59-.12-.95v-.89c0-.36.04-.68.12-.95.08-.27.2-.5.35-.68s.33-.32.54-.41c.21-.09.44-.14.7-.14s.5.05.71.14c.21.09.39.23.54.41s.26.41.34.68c.08.27.12.59.12.95Zm-.64.89v-.89c0-.28-.02-.52-.07-.72-.05-.2-.12-.37-.21-.5s-.2-.22-.34-.29-.29-.09-.46-.09c-.17,0-.32.03-.45.09s-.25.16-.34.29-.17.29-.22.5c-.05.2-.08.44-.08.72v.89c0,.28.03.53.08.73s.12.37.22.5c.09.13.21.23.34.29s.28.09.45.09c.18,0,.33-.03.46-.09s.25-.16.34-.29c.09-.13.16-.3.2-.5s.07-.45.07-.73Z"/>
          <path class="cls-2" d="m118.08,47.24c0-.12-.01-.23-.04-.32-.03-.09-.08-.18-.15-.25s-.17-.15-.29-.21-.29-.14-.48-.21c-.21-.07-.4-.16-.57-.25s-.32-.2-.44-.32-.21-.26-.28-.41-.1-.33-.1-.53.03-.38.1-.55.17-.32.29-.44c.13-.12.28-.22.46-.29s.38-.11.6-.11c.33,0,.61.07.84.22s.4.34.52.57c.12.24.18.49.18.75h-.65c0-.19-.03-.36-.09-.51s-.16-.27-.29-.35-.3-.13-.51-.13c-.19,0-.34.04-.46.11s-.21.17-.27.29-.09.27-.09.42c0,.11.02.21.06.29.04.09.1.17.17.24s.18.14.29.21.26.12.42.18c.25.08.46.17.64.27s.32.21.44.34.19.27.25.42c.05.16.08.34.08.54s-.03.4-.1.56-.17.31-.3.43-.29.21-.47.28c-.18.06-.39.1-.62.1-.2,0-.4-.03-.59-.1s-.37-.16-.52-.29-.28-.29-.38-.49c-.09-.19-.14-.42-.14-.67h.65c0,.18.03.33.08.45s.12.23.21.31.2.14.31.18c.12.04.25.06.38.06.19,0,.34-.03.47-.1s.22-.16.29-.28.1-.27.1-.43Z"/>
          <path class="cls-2" d="m120.11,47.76v.52c0,.21-.05.44-.16.68s-.26.44-.45.59l-.37-.26c.07-.1.14-.21.19-.31.05-.11.09-.22.12-.33.03-.11.04-.23.04-.36v-.53h.64Z"/>
          <path class="cls-2" d="m125.2,46.91h.65c-.02.35-.09.65-.21.91-.13.25-.31.45-.54.58s-.53.2-.89.2c-.25,0-.49-.05-.69-.15s-.38-.24-.53-.43c-.15-.19-.26-.41-.34-.68s-.12-.56-.12-.89v-.94c0-.33.04-.62.12-.89s.19-.49.34-.68.33-.33.54-.43.46-.15.73-.15c.33,0,.61.07.84.2s.41.33.53.58c.13.25.19.56.21.93h-.65c-.02-.27-.06-.49-.13-.66-.07-.17-.17-.29-.3-.38-.13-.08-.3-.12-.51-.12-.19,0-.35.04-.49.11s-.25.18-.34.32c-.09.14-.15.31-.2.5s-.06.41-.06.65v.95c0,.22.02.43.05.63s.09.36.18.51.19.26.32.34.29.12.48.12c.24,0,.42-.04.56-.12s.24-.2.31-.37.11-.39.13-.66Z"/>
          <path class="cls-2" d="m130.04,45.54v.89c0,.36-.04.68-.12.95-.08.27-.19.5-.34.68s-.33.32-.54.41-.45.14-.71.14-.49-.05-.7-.14-.39-.23-.54-.41-.27-.41-.35-.68c-.08-.27-.12-.59-.12-.95v-.89c0-.36.04-.68.12-.95.08-.27.2-.5.35-.68s.33-.32.54-.41c.21-.09.44-.14.7-.14s.5.05.71.14c.21.09.39.23.54.41s.26.41.34.68c.08.27.12.59.12.95Zm-.64.89v-.89c0-.28-.02-.52-.07-.72-.05-.2-.12-.37-.21-.5s-.2-.22-.34-.29-.29-.09-.46-.09c-.17,0-.32.03-.45.09s-.25.16-.34.29-.17.29-.22.5c-.05.2-.08.44-.08.72v.89c0,.28.03.53.08.73s.12.37.22.5c.09.13.21.23.34.29s.28.09.45.09c.18,0,.33-.03.46-.09s.25-.16.34-.29c.09-.13.16-.3.2-.5s.07-.45.07-.73Z"/>
          <path class="cls-2" d="m134.37,43.43v5.11h-.65l-2.05-3.94v3.94h-.65v-5.11h.65l2.06,3.95v-3.95h.64Z"/>
          <path class="cls-2" d="m137.72,47.24c0-.12-.01-.23-.04-.32-.03-.09-.08-.18-.15-.25s-.17-.15-.29-.21-.29-.14-.48-.21c-.21-.07-.4-.16-.57-.25s-.32-.2-.44-.32-.21-.26-.28-.41-.1-.33-.1-.53.03-.38.1-.55.17-.32.29-.44c.13-.12.28-.22.46-.29s.38-.11.6-.11c.33,0,.61.07.84.22s.4.34.52.57c.12.24.18.49.18.75h-.65c0-.19-.03-.36-.09-.51s-.16-.27-.29-.35-.3-.13-.51-.13c-.19,0-.34.04-.46.11-.12.07-.21.17-.27.29s-.09.27-.09.42c0,.11.02.21.06.29.04.09.1.17.17.24s.18.14.29.21c.12.06.26.12.42.18.25.08.46.17.64.27s.32.21.44.34.19.27.25.42c.05.16.08.34.08.54s-.03.4-.1.56-.17.31-.3.43-.29.21-.47.28c-.18.06-.39.1-.62.1-.2,0-.4-.03-.59-.1-.19-.07-.37-.16-.52-.29s-.28-.29-.38-.49c-.09-.19-.14-.42-.14-.67h.65c0,.18.03.33.08.45s.12.23.21.31.2.14.31.18c.12.04.24.06.38.06.19,0,.34-.03.47-.1s.22-.16.29-.28.1-.27.1-.43Z"/>
          <path class="cls-2" d="m142.2,43.43v.55h-3.32v-.55h3.32Zm-1.34,0v5.11h-.64v-5.11h.64Z"/>
          <path class="cls-2" d="m142.96,43.43h1.43c.33,0,.61.06.84.18s.4.29.51.52c.12.23.17.51.17.84,0,.23-.04.45-.12.64-.08.19-.19.36-.34.49-.15.13-.33.23-.54.3l-.18.07h-1.27v-.55s.91,0,.91,0c.2,0,.36-.04.49-.13s.23-.2.29-.35.1-.31.1-.48c0-.2-.03-.37-.09-.52s-.15-.26-.28-.34c-.13-.08-.3-.12-.51-.12h-.78v4.55h-.65v-5.11Zm2.45,5.11l-1.02-2.32h.67s1.04,2.27,1.04,2.27v.04h-.69Z"/>
          <path class="cls-2" d="m149.17,43.43h.65v3.6c0,.38-.07.69-.22.92s-.34.4-.58.5c-.24.1-.5.16-.77.16-.29,0-.56-.05-.8-.16-.24-.1-.42-.27-.56-.5s-.21-.54-.21-.92v-3.6h.64v3.6c0,.27.04.47.11.62s.18.25.32.32.3.09.49.09.35-.03.49-.09.25-.17.32-.32.11-.36.11-.62v-3.6Z"/>
          <path class="cls-2" d="m151.48,43.43v5.11h-.65v-5.11h.65Z"/>
          <path class="cls-2" d="m152.6,43.43h.55l.09,3.12v1.99h-.64v-5.11Zm.2,0h.62l1.34,4.17,1.33-4.17h.62l-1.72,5.11h-.49l-1.71-5.11Zm3.57,0h.55v5.11h-.64v-1.99l.09-3.12Z"/>
          <path class="cls-2" d="m161.35,45.54v.89c0,.36-.04.68-.12.95-.08.27-.19.5-.34.68s-.33.32-.54.41-.45.14-.71.14-.49-.05-.7-.14-.39-.23-.54-.41-.27-.41-.35-.68c-.08-.27-.12-.59-.12-.95v-.89c0-.36.04-.68.12-.95.08-.27.2-.5.35-.68s.33-.32.54-.41c.21-.09.44-.14.7-.14s.5.05.71.14c.21.09.39.23.54.41s.26.41.34.68c.08.27.12.59.12.95Zm-.64.89v-.89c0-.28-.02-.52-.07-.72-.05-.2-.12-.37-.21-.5s-.2-.22-.34-.29-.29-.09-.46-.09c-.17,0-.32.03-.45.09s-.25.16-.34.29-.17.29-.22.5c-.05.2-.08.44-.08.72v.89c0,.28.03.53.08.73s.12.37.22.5c.09.13.21.23.34.29s.28.09.45.09c.18,0,.33-.03.47-.09s.25-.16.34-.29c.09-.13.16-.3.2-.5s.07-.45.07-.73Z"/>
          <path class="cls-2" d="m164.58,47.24c0-.12-.01-.23-.04-.32-.03-.09-.08-.18-.15-.25s-.17-.15-.29-.21-.29-.14-.48-.21c-.21-.07-.4-.16-.57-.25s-.32-.2-.44-.32-.21-.26-.28-.41-.1-.33-.1-.53.03-.38.1-.55.17-.32.29-.44c.13-.12.28-.22.46-.29s.38-.11.6-.11c.33,0,.61.07.84.22s.4.34.52.57c.12.24.18.49.18.75h-.65c0-.19-.03-.36-.09-.51s-.16-.27-.29-.35-.3-.13-.51-.13c-.19,0-.34.04-.46.11s-.21.17-.27.29-.09.27-.09.42c0,.11.02.21.06.29.04.09.1.17.17.24s.18.14.29.21.26.12.42.18c.25.08.46.17.64.27s.32.21.44.34.19.27.25.42c.05.16.08.34.08.54s-.03.4-.1.56-.17.31-.3.43-.29.21-.47.28c-.18.06-.39.1-.62.1-.2,0-.4-.03-.59-.1s-.37-.16-.52-.29-.28-.29-.38-.49c-.09-.19-.14-.42-.14-.67h.65c0,.18.03.33.08.45s.12.23.21.31.2.14.31.18c.12.04.24.06.38.06.19,0,.34-.03.47-.1s.22-.16.29-.28.1-.27.1-.43Z"/>
          <path class="cls-2" d="m168.01,43.43l1.04,2.57,1.05-2.57h.73l-1.45,3.2v1.91h-.65v-1.91l-1.45-3.2h.73Z"/>
          <path class="cls-2" d="m173.79,43.43v5.11h-.65v-5.11h.65Zm2.07,0v.55h-2.18v-.55h2.18Zm-.26,2.2v.55h-1.92v-.55h1.92Zm.3,2.36v.55h-2.22v-.55h2.22Z"/>
          <path class="cls-2" d="m178.48,47.04v-3.62h.64v3.62c0,.34-.06.62-.18.85s-.28.41-.49.53c-.21.12-.45.18-.71.18s-.5-.05-.71-.16-.37-.27-.49-.49-.18-.5-.18-.83h.65c0,.22.03.39.1.53.06.14.15.24.26.31s.23.1.37.1.27-.04.38-.11.2-.19.26-.34c.06-.15.1-.34.1-.56Z"/>
          <path class="cls-2" d="m180.84,43.43v5.11h-.65v-5.11h.65Zm2.07,0v.55h-2.18v-.55h2.18Zm-.26,2.2v.55h-1.92v-.55h1.92Zm.3,2.36v.55h-2.22v-.55h2.22Z"/>
          <path class="cls-2" d="m186.32,46.91h.65c-.02.35-.09.65-.21.91-.13.25-.31.45-.54.58-.24.14-.53.2-.89.2-.25,0-.49-.05-.69-.15s-.38-.24-.53-.43c-.15-.19-.26-.41-.34-.68s-.12-.56-.12-.89v-.94c0-.33.04-.62.12-.89.08-.26.19-.49.34-.68s.33-.33.54-.43c.21-.1.46-.15.73-.15.33,0,.61.07.84.2.23.13.41.33.53.58.12.25.19.56.21.93h-.65c-.02-.27-.06-.49-.13-.66-.07-.17-.17-.29-.3-.38-.13-.08-.3-.12-.51-.12-.19,0-.35.04-.49.11-.14.07-.25.18-.34.32-.09.14-.15.31-.2.5s-.06.41-.06.65v.95c0,.22.02.43.05.63.04.19.09.36.18.51.08.15.19.26.32.34s.29.12.48.12c.24,0,.42-.04.56-.12s.24-.2.31-.37c.07-.17.11-.39.13-.66Z"/>
          <path class="cls-2" d="m190.24,43.43h.65v3.6c0,.38-.07.69-.22.92s-.34.4-.58.5c-.24.1-.5.16-.77.16-.29,0-.56-.05-.8-.16-.24-.1-.42-.27-.56-.5s-.21-.54-.21-.92v-3.6h.64v3.6c0,.27.04.47.11.62s.18.25.32.32.3.09.49.09.35-.03.49-.09.25-.17.32-.32.11-.36.11-.62v-3.6Z"/>
          <path class="cls-2" d="m194.86,43.43v.55h-3.32v-.55h3.32Zm-1.34,0v5.11h-.64v-5.11h.64Z"/>
          <path class="cls-2" d="m197.27,43.88l-1.4,4.66h-.66l1.65-5.11h.41v.45Zm1.13,2.77v.55h-2.46v-.55h2.46Zm0,1.89l-1.4-4.66v-.45s.41,0,.41,0l1.65,5.11h-.66Z"/>
          <path class="cls-2" d="m199.76,43.43h.55l.09,3.12v1.99h-.64v-5.11Zm.2,0h.62l1.34,4.17,1.33-4.17h.62l-1.72,5.11h-.49l-1.71-5.11Zm3.57,0h.55v5.11h-.64v-1.99l.09-3.12Z"/>
          <path class="cls-2" d="m208.51,45.54v.89c0,.36-.04.68-.12.95-.08.27-.19.5-.34.68s-.33.32-.54.41-.45.14-.71.14-.49-.05-.7-.14-.39-.23-.54-.41-.27-.41-.35-.68c-.08-.27-.12-.59-.12-.95v-.89c0-.36.04-.68.12-.95.08-.27.2-.5.35-.68s.33-.32.54-.41c.21-.09.44-.14.7-.14s.5.05.71.14c.21.09.39.23.54.41.15.18.26.41.34.68.08.27.12.59.12.95Zm-.64.89v-.89c0-.28-.02-.52-.07-.72-.05-.2-.12-.37-.21-.5s-.2-.22-.34-.29-.29-.09-.46-.09c-.17,0-.32.03-.45.09s-.24.16-.34.29-.17.29-.22.5c-.05.2-.08.44-.08.72v.89c0,.28.03.53.08.73s.12.37.22.5c.09.13.21.23.34.29s.28.09.45.09c.18,0,.33-.03.47-.09.13-.06.25-.16.34-.29.09-.13.16-.3.2-.5.05-.2.07-.45.07-.73Z"/>
          <path class="cls-2" d="m211.74,47.24c0-.12-.01-.23-.04-.32-.03-.09-.08-.18-.15-.25s-.17-.15-.29-.21-.29-.14-.48-.21c-.21-.07-.4-.16-.57-.25s-.32-.2-.44-.32-.21-.26-.28-.41-.1-.33-.1-.53.03-.38.1-.55.17-.32.29-.44c.13-.12.28-.22.46-.29s.38-.11.6-.11c.33,0,.61.07.84.22.23.15.4.34.52.57.12.24.18.49.18.75h-.65c0-.19-.03-.36-.09-.51s-.16-.27-.29-.35c-.13-.09-.3-.13-.51-.13-.19,0-.34.04-.46.11s-.21.17-.27.29-.09.27-.09.42c0,.11.02.21.06.29.04.09.1.17.17.24.08.07.18.14.29.21.12.06.26.12.42.18.25.08.46.17.64.27s.32.21.44.34.19.27.25.42c.05.16.08.34.08.54s-.03.4-.1.56c-.07.17-.17.31-.3.43s-.29.21-.47.28c-.18.06-.39.1-.62.1-.2,0-.4-.03-.59-.1-.19-.07-.37-.16-.52-.29s-.28-.29-.38-.49c-.09-.19-.14-.42-.14-.67h.65c0,.18.03.33.08.45s.12.23.21.31.2.14.31.18c.12.04.25.06.38.06.19,0,.34-.03.47-.1.13-.07.22-.16.29-.28.06-.12.1-.27.1-.43Z"/>
          <path class="cls-2" d="m217.44,46.91h.65c-.02.35-.09.65-.21.91-.13.25-.31.45-.54.58-.24.14-.53.2-.89.2-.25,0-.49-.05-.69-.15s-.38-.24-.53-.43c-.15-.19-.26-.41-.34-.68s-.12-.56-.12-.89v-.94c0-.33.04-.62.12-.89.08-.26.19-.49.34-.68s.33-.33.54-.43c.21-.1.46-.15.73-.15.33,0,.61.07.84.2.23.13.41.33.53.58.12.25.19.56.21.93h-.65c-.02-.27-.06-.49-.13-.66-.07-.17-.17-.29-.3-.38-.13-.08-.3-.12-.51-.12-.19,0-.35.04-.49.11-.14.07-.25.18-.34.32-.09.14-.15.31-.2.5s-.06.41-.06.65v.95c0,.22.02.43.05.63.04.19.09.36.18.51.08.15.19.26.32.34s.29.12.48.12c.24,0,.42-.04.56-.12s.24-.2.31-.37c.07-.17.11-.39.13-.66Z"/>
          <path class="cls-2" d="m222.28,45.54v.89c0,.36-.04.68-.12.95-.08.27-.19.5-.34.68s-.33.32-.54.41-.45.14-.71.14-.49-.05-.7-.14-.39-.23-.54-.41-.27-.41-.35-.68c-.08-.27-.12-.59-.12-.95v-.89c0-.36.04-.68.12-.95.08-.27.2-.5.35-.68s.33-.32.54-.41c.21-.09.44-.14.7-.14s.5.05.71.14c.21.09.39.23.54.41.15.18.26.41.34.68.08.27.12.59.12.95Zm-.64.89v-.89c0-.28-.02-.52-.07-.72-.05-.2-.12-.37-.21-.5s-.2-.22-.34-.29-.29-.09-.46-.09c-.17,0-.32.03-.45.09s-.24.16-.34.29-.17.29-.22.5c-.05.2-.08.44-.08.72v.89c0,.28.03.53.08.73s.12.37.22.5c.09.13.21.23.34.29s.28.09.45.09c.18,0,.33-.03.47-.09.13-.06.25-.16.34-.29.09-.13.16-.3.2-.5.05-.2.07-.45.07-.73Z"/>
          <path class="cls-2" d="m226.62,43.43v5.11h-.65l-2.05-3.94v3.94h-.65v-5.11h.65l2.06,3.95v-3.95h.64Z"/>
          <path class="cls-2" d="m231.01,46.53h-1.12v-.55h1.12c.21,0,.38-.04.51-.13.13-.08.22-.2.28-.35.06-.15.09-.32.09-.51,0-.18-.03-.34-.09-.49-.06-.15-.15-.28-.28-.37-.13-.09-.3-.14-.51-.14h-.98v4.55h-.65v-5.11h1.63c.33,0,.61.07.84.2s.4.32.52.55c.12.23.18.5.18.81,0,.33-.06.61-.18.84-.12.23-.29.41-.52.53-.23.12-.51.18-.84.18Z"/>
          <path class="cls-2" d="m235.02,43.88l-1.4,4.66h-.66l1.65-5.11h.41v.45Zm1.13,2.77v.55h-2.46v-.55h2.46Zm0,1.89l-1.4-4.66v-.45s.41,0,.41,0l1.65,5.11h-.66Z"/>
          <path class="cls-2" d="m239.74,47.24c0-.12-.01-.23-.04-.32-.03-.09-.08-.18-.15-.25s-.17-.15-.29-.21-.29-.14-.48-.21c-.21-.07-.4-.16-.57-.25s-.32-.2-.44-.32-.21-.26-.28-.41-.1-.33-.1-.53.03-.38.1-.55.17-.32.29-.44c.13-.12.28-.22.46-.29s.38-.11.6-.11c.33,0,.61.07.84.22.23.15.4.34.52.57.12.24.18.49.18.75h-.65c0-.19-.03-.36-.09-.51s-.16-.27-.29-.35c-.13-.09-.3-.13-.51-.13-.19,0-.34.04-.46.11s-.21.17-.27.29-.09.27-.09.42c0,.11.02.21.06.29.04.09.1.17.17.24.08.07.18.14.29.21.12.06.26.12.42.18.25.08.46.17.64.27s.32.21.44.34.19.27.25.42c.05.16.08.34.08.54s-.03.4-.1.56c-.07.17-.17.31-.3.43s-.29.21-.47.28c-.18.06-.39.1-.62.1-.2,0-.4-.03-.59-.1-.19-.07-.37-.16-.52-.29s-.28-.29-.38-.49c-.09-.19-.14-.42-.14-.67h.65c0,.18.03.33.08.45s.12.23.21.31.2.14.31.18c.12.04.25.06.38.06.19,0,.34-.03.47-.1.13-.07.22-.16.29-.28.06-.12.1-.27.1-.43Z"/>
          <path class="cls-2" d="m241.91,43.43v5.11h-.65v-5.11h.65Z"/>
          <path class="cls-2" d="m246.35,45.54v.89c0,.36-.04.68-.12.95-.08.27-.19.5-.34.68s-.33.32-.54.41-.45.14-.71.14-.49-.05-.7-.14-.39-.23-.54-.41-.27-.41-.35-.68c-.08-.27-.12-.59-.12-.95v-.89c0-.36.04-.68.12-.95.08-.27.2-.5.35-.68s.33-.32.54-.41c.21-.09.44-.14.7-.14s.5.05.71.14c.21.09.39.23.54.41.15.18.26.41.34.68.08.27.12.59.12.95Zm-.64.89v-.89c0-.28-.02-.52-.07-.72-.05-.2-.12-.37-.21-.5s-.2-.22-.34-.29-.29-.09-.46-.09c-.17,0-.32.03-.45.09s-.24.16-.34.29-.17.29-.22.5c-.05.2-.08.44-.08.72v.89c0,.28.03.53.08.73s.12.37.22.5c.09.13.21.23.34.29s.28.09.45.09c.18,0,.33-.03.47-.09.13-.06.25-.16.34-.29.09-.13.16-.3.2-.5.05-.2.07-.45.07-.73Zm-1.42-3.35l.68-1.03h.78l-.94,1.03h-.52Z"/>
          <path class="cls-2" d="m250.69,43.43v5.11h-.65l-2.05-3.94v3.94h-.65v-5.11h.65l2.06,3.95v-3.95h.64Z"/>
        </g>
        <circle class="cls-2" cx="77.9" cy="45.58" r="1.69"/>
        <circle class="cls-2" cx="257.61" cy="45.58" r="1.69"/>
      </g>
    </g>
  </g>
</svg>